<svg width="170" height="43" viewBox="0 0 170 43" fill="none" xmlns="http://www.w3.org/2000/svg">
<mask id="path-1-outside-1_336_752" maskUnits="userSpaceOnUse" x="0" y="0" width="170" height="43" fill="black">
<rect fill="white" width="170" height="43"/>
<path d="M3.96426 39V4H13.6643L31.4643 25.3H26.9643V4H38.4643V39H28.7643L10.9643 17.7H15.4643V39H3.96426ZM54.9498 17H70.5498V25.5H54.9498V17ZM55.7498 30.1H73.2498V39H44.1498V4H72.5998V12.9H55.7498V30.1ZM86.1541 39L74.9541 4H87.1041L96.1541 33.55H90.0541L99.6541 4H110.504L119.454 33.55H113.604L123.054 4H134.254L123.054 39H110.404L103.104 14.8H106.504L98.8041 39H86.1541ZM149.924 39.8C146.991 39.8 144.158 39.4667 141.424 38.8C138.691 38.1333 136.441 37.2667 134.674 36.2L138.474 27.6C140.141 28.5667 141.991 29.35 144.024 29.95C146.091 30.5167 148.091 30.8 150.024 30.8C151.158 30.8 152.041 30.7333 152.674 30.6C153.341 30.4333 153.824 30.2167 154.124 29.95C154.424 29.65 154.574 29.3 154.574 28.9C154.574 28.2667 154.224 27.7667 153.524 27.4C152.824 27.0333 151.891 26.7333 150.724 26.5C149.591 26.2333 148.341 25.9667 146.974 25.7C145.608 25.4 144.224 25.0167 142.824 24.55C141.458 24.0833 140.191 23.4667 139.024 22.7C137.891 21.9333 136.974 20.9333 136.274 19.7C135.574 18.4333 135.224 16.8667 135.224 15C135.224 12.8333 135.824 10.8667 137.024 9.1C138.258 7.3 140.074 5.86667 142.474 4.8C144.908 3.73333 147.924 3.2 151.524 3.2C153.891 3.2 156.224 3.45 158.524 3.95C160.824 4.45 162.891 5.21666 164.724 6.25L161.174 14.8C159.441 13.9333 157.758 13.2833 156.124 12.85C154.524 12.4167 152.958 12.2 151.424 12.2C150.291 12.2 149.391 12.3 148.724 12.5C148.058 12.7 147.574 12.9667 147.274 13.3C147.008 13.6333 146.874 14 146.874 14.4C146.874 15 147.224 15.4833 147.924 15.85C148.624 16.1833 149.541 16.4667 150.674 16.7C151.841 16.9333 153.108 17.1833 154.474 17.45C155.874 17.7167 157.258 18.0833 158.624 18.55C159.991 19.0167 161.241 19.6333 162.374 20.4C163.541 21.1667 164.474 22.1667 165.174 23.4C165.874 24.6333 166.224 26.1667 166.224 28C166.224 30.1333 165.608 32.1 164.374 33.9C163.174 35.6667 161.374 37.1 158.974 38.2C156.574 39.2667 153.558 39.8 149.924 39.8Z"/>
</mask>
<path d="M3.96426 39H0.964258V42H3.96426V39ZM3.96426 4V0.999998H0.964258V4H3.96426ZM13.6643 4L15.9663 2.07626L15.0669 0.999998H13.6643V4ZM31.4643 25.3V28.3H37.8809L33.7663 23.3763L31.4643 25.3ZM26.9643 25.3H23.9643V28.3H26.9643V25.3ZM26.9643 4V0.999998H23.9643V4H26.9643ZM38.4643 4H41.4643V0.999998H38.4643V4ZM38.4643 39V42H41.4643V39H38.4643ZM28.7643 39L26.4623 40.9237L27.3617 42H28.7643V39ZM10.9643 17.7V14.7H4.54758L8.66225 19.6237L10.9643 17.7ZM15.4643 17.7H18.4643V14.7H15.4643V17.7ZM15.4643 39V42H18.4643V39H15.4643ZM3.96426 39H6.96426V4H3.96426H0.964258V39H3.96426ZM3.96426 4V7H13.6643V4V0.999998H3.96426V4ZM13.6643 4L11.3623 5.92374L29.1623 27.2237L31.4643 25.3L33.7663 23.3763L15.9663 2.07626L13.6643 4ZM31.4643 25.3V22.3H26.9643V25.3V28.3H31.4643V25.3ZM26.9643 25.3H29.9643V4H26.9643H23.9643V25.3H26.9643ZM26.9643 4V7H38.4643V4V0.999998H26.9643V4ZM38.4643 4H35.4643V39H38.4643H41.4643V4H38.4643ZM38.4643 39V36H28.7643V39V42H38.4643V39ZM28.7643 39L31.0663 37.0763L13.2663 15.7763L10.9643 17.7L8.66225 19.6237L26.4623 40.9237L28.7643 39ZM10.9643 17.7V20.7H15.4643V17.7V14.7H10.9643V17.7ZM15.4643 17.7H12.4643V39H15.4643H18.4643V17.7H15.4643ZM15.4643 39V36H3.96426V39V42H15.4643V39ZM54.9498 17V14H51.9498V17H54.9498ZM70.5498 17H73.5498V14H70.5498V17ZM70.5498 25.5V28.5H73.5498V25.5H70.5498ZM54.9498 25.5H51.9498V28.5H54.9498V25.5ZM55.7498 30.1H52.7498V33.1H55.7498V30.1ZM73.2498 30.1H76.2498V27.1H73.2498V30.1ZM73.2498 39V42H76.2498V39H73.2498ZM44.1498 39H41.1498V42H44.1498V39ZM44.1498 4V0.999998H41.1498V4H44.1498ZM72.5998 4H75.5998V0.999998H72.5998V4ZM72.5998 12.9V15.9H75.5998V12.9H72.5998ZM55.7498 12.9V9.9H52.7498V12.9H55.7498ZM54.9498 17V20H70.5498V17V14H54.9498V17ZM70.5498 17H67.5498V25.5H70.5498H73.5498V17H70.5498ZM70.5498 25.5V22.5H54.9498V25.5V28.5H70.5498V25.5ZM54.9498 25.5H57.9498V17H54.9498H51.9498V25.5H54.9498ZM55.7498 30.1V33.1H73.2498V30.1V27.1H55.7498V30.1ZM73.2498 30.1H70.2498V39H73.2498H76.2498V30.1H73.2498ZM73.2498 39V36H44.1498V39V42H73.2498V39ZM44.1498 39H47.1498V4H44.1498H41.1498V39H44.1498ZM44.1498 4V7H72.5998V4V0.999998H44.1498V4ZM72.5998 4H69.5998V12.9H72.5998H75.5998V4H72.5998ZM72.5998 12.9V9.9H55.7498V12.9V15.9H72.5998V12.9ZM55.7498 12.9H52.7498V30.1H55.7498H58.7498V12.9H55.7498ZM86.1541 39L83.2968 39.9143L83.9642 42H86.1541V39ZM74.9541 4V0.999998H70.8442L72.0968 4.91432L74.9541 4ZM87.1041 4L89.9726 3.12149L89.3229 0.999998H87.1041V4ZM96.1541 33.55V36.55H100.21L99.0226 32.6715L96.1541 33.55ZM90.0541 33.55L87.2009 32.6231L85.9251 36.55H90.0541V33.55ZM99.6541 4V0.999998H97.4744L96.8009 3.07307L99.6541 4ZM110.504 4L113.375 3.13038L112.73 0.999998H110.504V4ZM119.454 33.55V36.55H123.497L122.325 32.6804L119.454 33.55ZM113.604 33.55L110.747 32.6362L109.495 36.55H113.604V33.55ZM123.054 4V0.999998H120.864L120.197 3.0862L123.054 4ZM134.254 4L137.111 4.91432L138.364 0.999998H134.254V4ZM123.054 39V42H125.244L125.911 39.9143L123.054 39ZM110.404 39L107.532 39.8664L108.176 42H110.404V39ZM103.104 14.8V11.8H99.0656L100.232 15.6664L103.104 14.8ZM106.504 14.8L109.363 15.7096L110.607 11.8H106.504V14.8ZM98.8041 39V42H100.998L101.663 39.9096L98.8041 39ZM86.1541 39L89.0114 38.0857L77.8114 3.08567L74.9541 4L72.0968 4.91432L83.2968 39.9143L86.1541 39ZM74.9541 4V7H87.1041V4V0.999998H74.9541V4ZM87.1041 4L84.2356 4.8785L93.2856 34.4285L96.1541 33.55L99.0226 32.6715L89.9726 3.12149L87.1041 4ZM96.1541 33.55V30.55H90.0541V33.55V36.55H96.1541V33.55ZM90.0541 33.55L92.9073 34.4769L102.507 4.92693L99.6541 4L96.8009 3.07307L87.2009 32.6231L90.0541 33.55ZM99.6541 4V7H110.504V4V0.999998H99.6541V4ZM110.504 4L107.633 4.86962L116.583 34.4196L119.454 33.55L122.325 32.6804L113.375 3.13038L110.504 4ZM119.454 33.55V30.55H113.604V33.55V36.55H119.454V33.55ZM113.604 33.55L116.462 34.4638L125.912 4.9138L123.054 4L120.197 3.0862L110.747 32.6362L113.604 33.55ZM123.054 4V7H134.254V4V0.999998H123.054V4ZM134.254 4L131.397 3.08567L120.197 38.0857L123.054 39L125.911 39.9143L137.111 4.91432L134.254 4ZM123.054 39V36H110.404V39V42H123.054V39ZM110.404 39L113.276 38.1336L105.976 13.9336L103.104 14.8L100.232 15.6664L107.532 39.8664L110.404 39ZM103.104 14.8V17.8H106.504V14.8V11.8H103.104V14.8ZM106.504 14.8L103.645 13.8904L95.9453 38.0904L98.8041 39L101.663 39.9096L109.363 15.7096L106.504 14.8ZM98.8041 39V36H86.1541V39V42H98.8041V39ZM141.424 38.8L142.135 35.8854L141.424 38.8ZM134.674 36.2L131.93 34.9875L130.863 37.4032L133.124 38.7682L134.674 36.2ZM138.474 27.6L139.98 25.0049L137.083 23.3252L135.73 26.3875L138.474 27.6ZM144.024 29.95L143.175 32.8273L143.203 32.8355L143.231 32.8432L144.024 29.95ZM152.674 30.6L153.292 33.5356L153.347 33.5241L153.402 33.5104L152.674 30.6ZM154.124 29.95L156.118 32.1922L156.183 32.1337L156.246 32.0713L154.124 29.95ZM153.524 27.4L152.132 30.0575L153.524 27.4ZM150.724 26.5L150.037 29.4202L150.087 29.4318L150.136 29.4417L150.724 26.5ZM146.974 25.7L146.331 28.6302L146.365 28.6378L146.4 28.6445L146.974 25.7ZM142.824 24.55L141.855 27.389L141.865 27.3926L141.876 27.396L142.824 24.55ZM139.024 22.7L137.343 25.1848L137.36 25.1961L137.377 25.2071L139.024 22.7ZM136.274 19.7L133.649 21.1511L133.657 21.166L133.665 21.1808L136.274 19.7ZM137.024 9.1L134.55 7.40429L134.543 7.41435L137.024 9.1ZM142.474 4.8L141.27 2.05239L141.263 2.05546L141.256 2.05856L142.474 4.8ZM158.524 3.95L157.887 6.88153L158.524 3.95ZM164.724 6.25L167.495 7.40039L168.515 4.94302L166.197 3.63654L164.724 6.25ZM161.174 14.8L159.833 17.4833L162.711 18.9224L163.945 15.9504L161.174 14.8ZM156.124 12.85L155.34 15.7457L155.348 15.7477L155.355 15.7497L156.124 12.85ZM148.724 12.5L147.862 9.62652L148.724 12.5ZM147.274 13.3L145.045 11.2931L144.986 11.3579L144.932 11.4259L147.274 13.3ZM147.924 15.85L146.532 18.5075L146.583 18.534L146.635 18.5586L147.924 15.85ZM150.674 16.7L150.069 19.6384L150.078 19.6401L150.086 19.6417L150.674 16.7ZM154.474 17.45L153.9 20.3945L153.913 20.397L154.474 17.45ZM158.624 18.55L157.655 21.389L158.624 18.55ZM162.374 20.4L160.693 22.8848L160.71 22.8961L160.727 22.9071L162.374 20.4ZM165.174 23.4L162.565 24.8808V24.8808L165.174 23.4ZM164.374 33.9L161.9 32.2043L161.893 32.2144L164.374 33.9ZM158.974 38.2L160.193 40.9414L160.209 40.9344L160.224 40.9272L158.974 38.2ZM149.924 39.8V36.8C147.22 36.8 144.626 36.493 142.135 35.8854L141.424 38.8L140.714 41.7146C143.689 42.4403 146.762 42.8 149.924 42.8V39.8ZM141.424 38.8L142.135 35.8854C139.598 35.2666 137.656 34.4956 136.225 33.6318L134.674 36.2L133.124 38.7682C135.226 40.0377 137.784 41 140.714 41.7146L141.424 38.8ZM134.674 36.2L137.418 37.4125L141.218 28.8125L138.474 27.6L135.73 26.3875L131.93 34.9875L134.674 36.2ZM138.474 27.6L136.969 30.1951C138.862 31.2929 140.936 32.1664 143.175 32.8273L144.024 29.95L144.873 27.0727C143.047 26.5336 141.42 25.8404 139.98 25.0049L138.474 27.6ZM144.024 29.95L143.231 32.8432C145.529 33.4732 147.796 33.8 150.024 33.8V30.8V27.8C148.386 27.8 146.654 27.5602 144.818 27.0568L144.024 29.95ZM150.024 30.8V33.8C151.236 33.8 152.359 33.7321 153.292 33.5356L152.674 30.6L152.056 27.6643C151.723 27.7346 151.08 27.8 150.024 27.8V30.8ZM152.674 30.6L153.402 33.5104C154.247 33.2991 155.284 32.9334 156.118 32.1922L154.124 29.95L152.131 27.7078C152.204 27.6436 152.261 27.6054 152.29 27.5875C152.319 27.5695 152.328 27.5667 152.31 27.575C152.292 27.583 152.254 27.5988 152.191 27.6196C152.129 27.6403 152.049 27.6641 151.947 27.6896L152.674 30.6ZM154.124 29.95L156.246 32.0713C157.07 31.2466 157.574 30.1477 157.574 28.9H154.574H151.574C151.574 28.7146 151.611 28.4979 151.704 28.2807C151.796 28.0671 151.914 27.9178 152.003 27.8287L154.124 29.95ZM154.574 28.9H157.574C157.574 26.8568 156.314 25.4747 154.916 24.7425L153.524 27.4L152.132 30.0575C152.179 30.0817 152.023 30.0121 151.854 29.7704C151.662 29.4963 151.574 29.1742 151.574 28.9H154.574ZM153.524 27.4L154.916 24.7425C153.87 24.1945 152.633 23.8223 151.313 23.5583L150.724 26.5L150.136 29.4417C151.149 29.6443 151.779 29.8722 152.132 30.0575L153.524 27.4ZM150.724 26.5L151.412 23.5798C150.234 23.3028 148.946 23.0282 147.549 22.7555L146.974 25.7L146.4 28.6445C147.736 28.9052 148.948 29.1639 150.037 29.4202L150.724 26.5ZM146.974 25.7L147.618 22.7698C146.36 22.4936 145.078 22.139 143.773 21.7039L142.824 24.55L141.876 27.396C143.371 27.8943 144.856 28.3064 146.331 28.6302L146.974 25.7ZM142.824 24.55L143.794 21.711C142.658 21.3231 141.62 20.8161 140.672 20.1929L139.024 22.7L137.377 25.2071C138.762 26.1173 140.257 26.8436 141.855 27.389L142.824 24.55ZM139.024 22.7L140.705 20.2151C139.969 19.7168 139.364 19.066 138.883 18.2192L136.274 19.7L133.665 21.1808C134.585 22.8007 135.813 24.1499 137.343 25.1848L139.024 22.7ZM136.274 19.7L138.9 18.2489C138.507 17.537 138.224 16.5024 138.224 15H135.224H132.224C132.224 17.2309 132.642 19.3296 133.649 21.1511L136.274 19.7ZM135.224 15H138.224C138.224 13.4252 138.649 12.0474 139.506 10.7856L137.024 9.1L134.543 7.41435C133 9.68592 132.224 12.2415 132.224 15H135.224ZM137.024 9.1L139.499 10.7957C140.36 9.53942 141.696 8.42875 143.693 7.54143L142.474 4.8L141.256 2.05856C138.452 3.30459 136.156 5.06058 134.55 7.4043L137.024 9.1ZM142.474 4.8L143.679 7.54761C145.623 6.69529 148.2 6.2 151.524 6.2V3.2V0.199999C147.649 0.199999 144.192 0.771372 141.27 2.05239L142.474 4.8ZM151.524 3.2V6.2C153.678 6.2 155.798 6.4273 157.887 6.88153L158.524 3.95L159.162 1.01847C156.651 0.472702 154.104 0.199999 151.524 0.199999V3.2ZM158.524 3.95L157.887 6.88153C159.928 7.32529 161.708 7.99357 163.251 8.86345L164.724 6.25L166.197 3.63654C164.074 2.43976 161.72 1.5747 159.162 1.01847L158.524 3.95ZM164.724 6.25L161.954 5.0996L158.404 13.6496L161.174 14.8L163.945 15.9504L167.495 7.40039L164.724 6.25ZM161.174 14.8L162.516 12.1167C160.626 11.1716 158.751 10.4431 156.894 9.95032L156.124 12.85L155.355 15.7497C156.764 16.1236 158.256 16.695 159.833 17.4833L161.174 14.8ZM156.124 12.85L156.909 9.95432C155.074 9.45732 153.243 9.2 151.424 9.2V12.2V15.2C152.672 15.2 153.975 15.376 155.34 15.7457L156.124 12.85ZM151.424 12.2V9.2C150.158 9.2 148.928 9.30676 147.862 9.62652L148.724 12.5L149.586 15.3735C149.854 15.2932 150.424 15.2 151.424 15.2V12.2ZM148.724 12.5L147.862 9.62652C146.936 9.9045 145.862 10.3843 145.045 11.2931L147.274 13.3L149.504 15.3069C149.444 15.3735 149.392 15.418 149.358 15.4441C149.324 15.47 149.306 15.4795 149.311 15.4767C149.316 15.4739 149.34 15.4614 149.387 15.4423C149.434 15.4233 149.499 15.3996 149.586 15.3735L148.724 12.5ZM147.274 13.3L144.932 11.4259C144.27 12.2528 143.874 13.2712 143.874 14.4H146.874H149.874C149.874 14.5407 149.85 14.6966 149.794 14.8502C149.739 15.0014 149.669 15.1096 149.617 15.1741L147.274 13.3ZM146.874 14.4H143.874C143.874 16.4754 145.209 17.8142 146.532 18.5075L147.924 15.85L149.316 13.1925C149.25 13.1575 149.396 13.2177 149.567 13.453C149.765 13.7261 149.874 14.0718 149.874 14.4H146.874ZM147.924 15.85L146.635 18.5586C147.631 19.0332 148.803 19.3777 150.069 19.6384L150.674 16.7L151.279 13.7616C150.279 13.5556 149.617 13.3335 149.214 13.1414L147.924 15.85ZM150.674 16.7L150.086 19.6417C151.258 19.8761 152.529 20.1271 153.9 20.3945L154.474 17.45L155.049 14.5055C153.686 14.2396 152.424 13.9905 151.263 13.7583L150.674 16.7ZM154.474 17.45L153.913 20.397C155.173 20.637 156.42 20.9673 157.655 21.389L158.624 18.55L159.594 15.711C158.096 15.1994 156.576 14.7964 155.036 14.503L154.474 17.45ZM158.624 18.55L157.655 21.389C158.784 21.7745 159.792 22.2753 160.693 22.8848L162.374 20.4L164.055 17.9151C162.69 16.9913 161.198 16.2588 159.594 15.7109L158.624 18.55ZM162.374 20.4L160.727 22.9071C161.49 23.4084 162.096 24.0541 162.565 24.8808L165.174 23.4L167.783 21.9192C166.853 20.2792 165.592 18.9249 164.022 17.8929L162.374 20.4ZM165.174 23.4L162.565 24.8808C162.945 25.5492 163.224 26.5375 163.224 28H166.224H169.224C169.224 25.7958 168.804 23.7175 167.783 21.9192L165.174 23.4ZM166.224 28H163.224C163.224 29.5135 162.799 30.8915 161.9 32.2043L164.374 33.9L166.849 35.5957C168.416 33.3085 169.224 30.7531 169.224 28H166.224ZM164.374 33.9L161.893 32.2144C161.066 33.432 159.744 34.5474 157.724 35.4728L158.974 38.2L160.224 40.9272C163.005 39.6526 165.283 37.9013 166.856 35.5856L164.374 33.9ZM158.974 38.2L157.756 35.4586C155.857 36.3026 153.289 36.8 149.924 36.8V39.8V42.8C153.827 42.8 157.292 42.2307 160.193 40.9414L158.974 38.2Z" fill="url(#paint0_linear_336_752)" mask="url(#path-1-outside-1_336_752)"/>
<defs>
<linearGradient id="paint0_linear_336_752" x1="84" y1="-9" x2="84" y2="52" gradientUnits="userSpaceOnUse">
<stop stop-color="#E51D25"/>
<stop offset="1" stop-color="#1D3A69"/>
</linearGradient>
</defs>
</svg>
